<svg width="429" height="258" viewBox="0 0 429 258" fill="none" xmlns="http://www.w3.org/2000/svg">
<mask id="mask0_82_1277" style="mask-type:alpha" maskUnits="userSpaceOnUse" x="0" y="0" width="429" height="258">
<rect width="429" height="258" fill="black"/>
</mask>
<g mask="url(#mask0_82_1277)">
<g filter="url(#filter0_d_82_1277)">
<rect x="91.3398" y="31" width="247.321" height="382" rx="19.5897" fill="#F7F9FB"/>
<path d="M149.762 67.8116V65.9186H159.708V67.8116H155.855V78.3848H153.615V67.8116H149.762ZM164.25 78.5674C163.337 78.5674 162.546 78.3665 161.876 77.9648C161.207 77.563 160.687 77.001 160.318 76.2787C159.953 75.5563 159.77 74.7123 159.77 73.7465C159.77 72.7807 159.953 71.9346 160.318 71.2082C160.687 70.4818 161.207 69.9177 161.876 69.516C162.546 69.1142 163.337 68.9134 164.25 68.9134C165.163 68.9134 165.955 69.1142 166.624 69.516C167.294 69.9177 167.811 70.4818 168.176 71.2082C168.546 71.9346 168.73 72.7807 168.73 73.7465C168.73 74.7123 168.546 75.5563 168.176 76.2787C167.811 77.001 167.294 77.563 166.624 77.9648C165.955 78.3665 165.163 78.5674 164.25 78.5674ZM164.262 76.8021C164.757 76.8021 165.171 76.6662 165.504 76.3943C165.837 76.1184 166.084 75.7491 166.247 75.2865C166.413 74.8239 166.496 74.3085 166.496 73.7404C166.496 73.1682 166.413 72.6508 166.247 72.1882C166.084 71.7215 165.837 71.3502 165.504 71.0743C165.171 70.7983 164.757 70.6603 164.262 70.6603C163.755 70.6603 163.333 70.7983 162.996 71.0743C162.664 71.3502 162.414 71.7215 162.248 72.1882C162.085 72.6508 162.004 73.1682 162.004 73.7404C162.004 74.3085 162.085 74.8239 162.248 75.2865C162.414 75.7491 162.664 76.1184 162.996 76.3943C163.333 76.6662 163.755 76.8021 164.262 76.8021ZM175.269 69.0351V70.7395H169.894V69.0351H175.269ZM171.221 66.7951H173.425V75.5726C173.425 75.8688 173.469 76.096 173.559 76.2543C173.652 76.4085 173.774 76.514 173.924 76.5708C174.074 76.6276 174.24 76.6561 174.423 76.6561C174.561 76.6561 174.687 76.6459 174.801 76.6256C174.918 76.6053 175.007 76.5871 175.068 76.5708L175.44 78.2935C175.322 78.334 175.154 78.3787 174.934 78.4274C174.719 78.4761 174.456 78.5045 174.143 78.5126C173.591 78.5288 173.094 78.4456 172.652 78.263C172.209 78.0764 171.858 77.7882 171.599 77.3987C171.343 77.0091 171.217 76.5221 171.221 75.9378V66.7951ZM179.803 78.5735C179.21 78.5735 178.676 78.468 178.202 78.2569C177.731 78.0419 177.358 77.7253 177.082 77.3074C176.81 76.8894 176.674 76.374 176.674 75.7613C176.674 75.2337 176.771 74.7975 176.966 74.4526C177.161 74.1076 177.427 73.8317 177.763 73.6247C178.1 73.4178 178.48 73.2615 178.902 73.156C179.328 73.0465 179.768 72.9673 180.223 72.9186C180.77 72.8618 181.215 72.8111 181.556 72.7665C181.896 72.7178 182.144 72.6447 182.298 72.5473C182.456 72.4459 182.536 72.2896 182.536 72.0786V72.0421C182.536 71.5835 182.4 71.2285 182.128 70.9769C181.856 70.7253 181.464 70.5995 180.953 70.5995C180.413 70.5995 179.985 70.7172 179.669 70.9525C179.356 71.1879 179.145 71.4659 179.036 71.7864L176.978 71.4943C177.14 70.9261 177.408 70.4514 177.782 70.0699C178.155 69.6844 178.611 69.3963 179.151 69.2056C179.691 69.0108 180.287 68.9134 180.941 68.9134C181.391 68.9134 181.84 68.9661 182.286 69.0716C182.732 69.1771 183.14 69.3516 183.509 69.5951C183.879 69.8345 184.175 70.1612 184.398 70.5751C184.625 70.989 184.739 71.5064 184.739 72.1273V78.3848H182.621V77.1004H182.548C182.414 77.3601 182.225 77.6036 181.982 77.8308C181.742 78.054 181.44 78.2346 181.075 78.3726C180.714 78.5065 180.289 78.5735 179.803 78.5735ZM180.375 76.9543C180.817 76.9543 181.2 76.8671 181.525 76.6926C181.85 76.514 182.099 76.2787 182.274 75.9865C182.452 75.6943 182.542 75.3758 182.542 75.0308V73.9291C182.473 73.9859 182.355 74.0386 182.189 74.0873C182.026 74.136 181.844 74.1786 181.641 74.2152C181.438 74.2517 181.237 74.2841 181.038 74.3126C180.839 74.341 180.667 74.3653 180.521 74.3856C180.192 74.4302 179.898 74.5033 179.638 74.6047C179.378 74.7062 179.174 74.8482 179.023 75.0308C178.873 75.2094 178.798 75.4407 178.798 75.7247C178.798 76.1305 178.946 76.4369 179.243 76.6439C179.539 76.8508 179.916 76.9543 180.375 76.9543ZM189.158 65.9186V78.3848H186.955V65.9186H189.158ZM195.676 78.3848V69.0351H197.782V70.6238H197.892C198.086 70.0882 198.409 69.6702 198.859 69.3699C199.31 69.0656 199.848 68.9134 200.472 68.9134C201.106 68.9134 201.639 69.0676 202.073 69.376C202.512 69.6803 202.82 70.0963 202.999 70.6238H203.096C203.303 70.1044 203.652 69.6905 204.143 69.3821C204.638 69.0696 205.224 68.9134 205.902 68.9134C206.762 68.9134 207.464 69.1853 208.008 69.729C208.552 70.2728 208.824 71.0661 208.824 72.1091V78.3848H206.614V72.4499C206.614 71.8696 206.46 71.4456 206.152 71.1777C205.843 70.9059 205.466 70.7699 205.019 70.7699C204.488 70.7699 204.072 70.9363 203.772 71.269C203.475 71.5977 203.327 72.0259 203.327 72.5534V78.3848H201.166V72.3586C201.166 71.8757 201.02 71.4902 200.728 71.2021C200.44 70.914 200.063 70.7699 199.596 70.7699C199.279 70.7699 198.991 70.8511 198.732 71.0134C198.472 71.1717 198.265 71.3969 198.111 71.6891C197.957 71.9772 197.879 72.314 197.879 72.6995V78.3848H195.676ZM215.198 78.5674C214.261 78.5674 213.452 78.3726 212.77 77.983C212.092 77.5894 211.571 77.0334 211.205 76.3152C210.84 75.5929 210.658 74.7427 210.658 73.7647C210.658 72.803 210.84 71.9589 211.205 71.2325C211.575 70.5021 212.09 69.934 212.752 69.5282C213.413 69.1183 214.19 68.9134 215.083 68.9134C215.659 68.9134 216.203 69.0067 216.714 69.1934C217.23 69.376 217.684 69.66 218.078 70.0456C218.475 70.4311 218.788 70.9221 219.015 71.5186C219.242 72.1111 219.356 72.8172 219.356 73.6369V74.3126H211.692V72.8273H217.244C217.24 72.4053 217.148 72.0299 216.97 71.7012C216.791 71.3685 216.542 71.1067 216.221 70.916C215.905 70.7253 215.535 70.6299 215.113 70.6299C214.663 70.6299 214.267 70.7395 213.926 70.9586C213.585 71.1737 213.32 71.4577 213.129 71.8108C212.942 72.1598 212.847 72.5433 212.843 72.9612V74.2578C212.843 74.8015 212.942 75.2682 213.141 75.6578C213.34 76.0433 213.618 76.3395 213.975 76.5465C214.332 76.7494 214.75 76.8508 215.229 76.8508C215.549 76.8508 215.84 76.8062 216.099 76.7169C216.359 76.6236 216.584 76.4876 216.775 76.3091C216.966 76.1305 217.11 75.9094 217.207 75.6456L219.265 75.8769C219.135 76.4207 218.887 76.8955 218.522 77.3013C218.161 77.703 217.698 78.0155 217.134 78.2387C216.57 78.4578 215.925 78.5674 215.198 78.5674ZM225.359 78.5674C224.422 78.5674 223.612 78.3726 222.931 77.983C222.253 77.5894 221.731 77.0334 221.366 76.3152C221.001 75.5929 220.818 74.7427 220.818 73.7647C220.818 72.803 221.001 71.9589 221.366 71.2325C221.735 70.5021 222.251 69.934 222.912 69.5282C223.574 69.1183 224.351 68.9134 225.244 68.9134C225.82 68.9134 226.364 69.0067 226.875 69.1934C227.39 69.376 227.845 69.66 228.238 70.0456C228.636 70.4311 228.949 70.9221 229.176 71.5186C229.403 72.1111 229.517 72.8172 229.517 73.6369V74.3126H221.853V72.8273H227.404C227.4 72.4053 227.309 72.0299 227.131 71.7012C226.952 71.3685 226.702 71.1067 226.382 70.916C226.065 70.7253 225.696 70.6299 225.274 70.6299C224.824 70.6299 224.428 70.7395 224.087 70.9586C223.746 71.1737 223.48 71.4577 223.29 71.8108C223.103 72.1598 223.008 72.5433 223.004 72.9612V74.2578C223.004 74.8015 223.103 75.2682 223.302 75.6578C223.501 76.0433 223.779 76.3395 224.136 76.5465C224.493 76.7494 224.911 76.8508 225.39 76.8508C225.71 76.8508 226 76.8062 226.26 76.7169C226.52 76.6236 226.745 76.4876 226.936 76.3091C227.126 76.1305 227.271 75.9094 227.368 75.6456L229.425 75.8769C229.295 76.4207 229.048 76.8955 228.683 77.3013C228.322 77.703 227.859 78.0155 227.295 78.2387C226.731 78.4578 226.086 78.5674 225.359 78.5674ZM236.05 69.0351V70.7395H230.675V69.0351H236.05ZM232.002 66.7951H234.205V75.5726C234.205 75.8688 234.25 76.096 234.339 76.2543C234.432 76.4085 234.554 76.514 234.704 76.5708C234.854 76.6276 235.021 76.6561 235.203 76.6561C235.341 76.6561 235.467 76.6459 235.581 76.6256C235.699 76.6053 235.788 76.5871 235.849 76.5708L236.22 78.2935C236.102 78.334 235.934 78.3787 235.715 78.4274C235.5 78.4761 235.236 78.5045 234.923 78.5126C234.372 78.5288 233.874 78.4456 233.432 78.263C232.99 78.0764 232.639 77.7882 232.379 77.3987C232.123 77.0091 231.998 76.5221 232.002 75.9378V66.7951ZM237.892 78.3848V69.0351H240.096V78.3848H237.892ZM239 67.7081C238.651 67.7081 238.351 67.5925 238.099 67.3612C237.848 67.1258 237.722 66.8438 237.722 66.5151C237.722 66.1823 237.848 65.9003 238.099 65.669C238.351 65.4336 238.651 65.316 239 65.316C239.353 65.316 239.654 65.4336 239.901 65.669C240.153 65.9003 240.278 66.1823 240.278 66.5151C240.278 66.8438 240.153 67.1258 239.901 67.3612C239.654 67.5925 239.353 67.7081 239 67.7081ZM244.565 72.9065V78.3848H242.362V69.0351H244.468V70.6238H244.577C244.793 70.1003 245.135 69.6844 245.606 69.376C246.081 69.0676 246.667 68.9134 247.365 68.9134C248.011 68.9134 248.573 69.0513 249.051 69.3273C249.534 69.6032 249.908 70.003 250.171 70.5264C250.439 71.0499 250.571 71.685 250.567 72.4317V78.3848H248.364V72.7725C248.364 72.1476 248.201 71.6586 247.877 71.3056C247.556 70.9525 247.112 70.776 246.544 70.776C246.158 70.776 245.815 70.8612 245.515 71.0317C245.219 71.198 244.985 71.4395 244.815 71.756C244.648 72.0725 244.565 72.456 244.565 72.9065ZM256.873 82.0857C256.082 82.0857 255.402 81.9781 254.834 81.7631C254.266 81.552 253.809 81.268 253.464 80.9109C253.12 80.5538 252.88 80.1581 252.746 79.7239L254.731 79.243C254.82 79.4256 254.95 79.6062 255.12 79.7848C255.291 79.9674 255.52 80.1175 255.808 80.2352C256.1 80.357 256.467 80.4178 256.91 80.4178C257.535 80.4178 258.052 80.2657 258.462 79.9613C258.872 79.661 259.077 79.1659 259.077 78.4761V76.7048H258.967C258.854 76.932 258.687 77.1653 258.468 77.4048C258.253 77.6442 257.967 77.8451 257.61 78.0074C257.257 78.1697 256.812 78.2509 256.277 78.2509C255.558 78.2509 254.907 78.0824 254.323 77.7456C253.742 77.4048 253.28 76.8975 252.935 76.2239C252.594 75.5462 252.424 74.6981 252.424 73.6795C252.424 72.6528 252.594 71.7864 252.935 71.0804C253.28 70.3702 253.744 69.8325 254.329 69.4673C254.913 69.098 255.564 68.9134 256.283 68.9134C256.831 68.9134 257.281 69.0067 257.634 69.1934C257.991 69.376 258.275 69.5971 258.486 69.8569C258.697 70.1125 258.858 70.354 258.967 70.5812H259.089V69.0351H261.262V78.5369C261.262 79.3364 261.071 79.9978 260.69 80.5213C260.308 81.0448 259.787 81.4364 259.125 81.6961C258.464 81.9558 257.713 82.0857 256.873 82.0857ZM256.891 76.5221C257.358 76.5221 257.756 76.4085 258.085 76.1813C258.413 75.954 258.663 75.6273 258.833 75.2013C259.004 74.7752 259.089 74.2639 259.089 73.6673C259.089 73.0789 259.004 72.5636 258.833 72.1212C258.667 71.6789 258.419 71.336 258.091 71.0925C257.766 70.845 257.366 70.7212 256.891 70.7212C256.4 70.7212 255.991 70.849 255.662 71.1047C255.333 71.3604 255.086 71.7114 254.919 72.1578C254.753 72.6001 254.67 73.1033 254.67 73.6673C254.67 74.2395 254.753 74.7407 254.919 75.1708C255.09 75.5969 255.339 75.9297 255.668 76.1691C256.001 76.4045 256.409 76.5221 256.891 76.5221ZM270.91 71.5064L268.901 71.7256C268.844 71.5227 268.745 71.3319 268.603 71.1534C268.465 70.9748 268.278 70.8308 268.043 70.7212C267.808 70.6117 267.519 70.5569 267.179 70.5569C266.72 70.5569 266.334 70.6563 266.022 70.8551C265.714 71.054 265.561 71.3117 265.565 71.6282C265.561 71.9001 265.661 72.1212 265.864 72.2917C266.071 72.4621 266.412 72.6021 266.886 72.7117L268.481 73.0525C269.366 73.2433 270.023 73.5456 270.453 73.9595C270.888 74.3734 271.107 74.9152 271.111 75.5847C271.107 76.1732 270.934 76.6926 270.593 77.143C270.257 77.5894 269.788 77.9384 269.187 78.19C268.587 78.4416 267.897 78.5674 267.118 78.5674C265.973 78.5674 265.052 78.328 264.354 77.8491C263.656 77.3662 263.24 76.6946 263.106 75.8343L265.255 75.6273C265.352 76.0494 265.559 76.3679 265.876 76.583C266.192 76.7981 266.604 76.9056 267.112 76.9056C267.635 76.9056 268.055 76.7981 268.372 76.583C268.692 76.3679 268.852 76.1021 268.852 75.7856C268.852 75.5178 268.749 75.2966 268.542 75.1221C268.339 74.9476 268.023 74.8137 267.592 74.7204L265.998 74.3856C265.101 74.1989 264.437 73.8844 264.007 73.4421C263.577 72.9957 263.364 72.4317 263.368 71.7499C263.364 71.1737 263.52 70.6746 263.837 70.2525C264.157 69.8264 264.602 69.4977 265.17 69.2664C265.742 69.0311 266.401 68.9134 267.148 68.9134C268.244 68.9134 269.106 69.1467 269.735 69.6134C270.368 70.0801 270.76 70.7111 270.91 71.5064Z" fill="#1C1C1C"/>
<path d="M264.866 124.067C259.952 118.602 251.538 118.155 246.074 123.069C240.609 127.983 240.162 136.396 245.075 141.861C251.437 148.936 255.292 158.264 255.292 168.524C255.292 190.558 237.43 208.421 215.395 208.421C193.361 208.421 175.498 190.558 175.498 168.524C175.498 166.291 175.68 164.11 176.028 161.994C177.219 154.742 172.305 147.897 165.053 146.707C157.801 145.516 150.957 150.429 149.766 157.681C149.185 161.218 148.885 164.841 148.885 168.524C148.885 205.257 178.662 235.034 215.395 235.034C252.128 235.034 281.906 205.257 281.906 168.524C281.906 151.443 275.449 135.838 264.866 124.067Z" fill="#131313" stroke="#F7F9FB" stroke-width="4.89744" stroke-linecap="round" stroke-linejoin="round"/>
<path d="M185.591 141.861C190.505 136.396 190.058 127.983 184.593 123.069C179.128 118.155 170.715 118.602 165.801 124.067C160.723 129.715 156.593 136.245 153.669 143.41C150.893 150.214 154.158 157.981 160.963 160.757C167.767 163.534 175.534 160.268 178.311 153.464C180.058 149.182 182.534 145.262 185.591 141.861Z" fill="#131313" stroke="#F7F9FB" stroke-width="4.89744" stroke-linecap="round" stroke-linejoin="round"/>
<path d="M192.34 135.77C198.797 131.266 206.635 128.627 215.129 128.627C223.624 128.627 231.462 131.266 237.919 135.77C243.946 139.975 252.241 138.497 256.446 132.469C260.65 126.441 259.172 118.147 253.144 113.942C242.366 106.424 229.243 102.013 215.129 102.013C201.016 102.013 187.893 106.424 177.114 113.942C171.087 118.147 169.609 126.441 173.813 132.469C178.018 138.497 186.312 139.975 192.34 135.77Z" fill="#131313" stroke="#F7F9FB" stroke-width="4.89744" stroke-linecap="round" stroke-linejoin="round"/>
<path d="M264.867 124.067C259.953 118.602 251.54 118.155 246.075 123.069C240.61 127.983 240.163 136.396 245.077 141.861C251.438 148.936 255.294 158.264 255.294 168.524C255.294 190.558 237.431 208.421 215.396 208.421C208.047 208.421 202.09 214.379 202.09 221.728C202.09 229.077 208.047 235.034 215.396 235.034C252.129 235.034 281.907 205.257 281.907 168.524C281.907 151.443 275.451 135.838 264.867 124.067Z" fill="#131313" stroke="#F7F9FB" stroke-width="4.89744" stroke-linecap="round" stroke-linejoin="round"/>
<path fill-rule="evenodd" clip-rule="evenodd" d="M215.395 206.29C218.91 206.29 222.29 205.817 225.487 204.939C233.583 202.717 241.947 207.479 244.169 215.575C246.391 223.671 241.63 232.035 233.534 234.258C227.74 235.848 221.654 236.692 215.395 236.692C207 236.692 200.194 229.887 200.194 221.491C200.194 213.096 207 206.29 215.395 206.29Z" fill="#F7F9FB"/>
<path fill-rule="evenodd" clip-rule="evenodd" d="M215.395 210.634C219.302 210.634 223.069 210.107 226.637 209.128C232.42 207.541 238.394 210.942 239.981 216.725C241.569 222.508 238.167 228.482 232.384 230.07C226.962 231.558 221.262 232.35 215.395 232.35C201.799 232.35 189.162 228.102 178.781 220.861C173.863 217.43 172.657 210.662 176.088 205.743C179.518 200.825 186.287 199.619 191.205 203.05C198.06 207.831 206.384 210.634 215.395 210.634Z" fill="#131313"/>
<rect x="145.212" y="190.167" width="52.7949" height="23" rx="4.89744" fill="black" fill-opacity="0.8"/>
<path d="M154.826 206.313C154.137 206.313 153.523 206.194 152.984 205.958C152.448 205.721 152.022 205.393 151.706 204.972C151.393 204.547 151.222 204.055 151.194 203.495H152.509C152.537 203.84 152.655 204.137 152.864 204.387C153.073 204.634 153.346 204.826 153.683 204.961C154.02 205.097 154.394 205.165 154.805 205.165C155.264 205.165 155.671 205.085 156.026 204.925C156.38 204.765 156.659 204.542 156.86 204.257C157.062 203.972 157.163 203.641 157.163 203.266C157.163 202.873 157.066 202.526 156.871 202.227C156.676 201.925 156.391 201.688 156.015 201.518C155.64 201.347 155.18 201.262 154.638 201.262H153.782V200.114H154.638C155.062 200.114 155.434 200.038 155.754 199.885C156.078 199.732 156.33 199.516 156.511 199.238C156.695 198.959 156.787 198.633 156.787 198.257C156.787 197.895 156.707 197.58 156.547 197.313C156.387 197.045 156.161 196.836 155.869 196.686C155.58 196.537 155.24 196.462 154.847 196.462C154.478 196.462 154.13 196.53 153.803 196.666C153.48 196.798 153.215 196.991 153.01 197.245C152.805 197.495 152.694 197.798 152.676 198.153H151.424C151.445 197.593 151.613 197.102 151.93 196.681C152.247 196.257 152.66 195.926 153.172 195.69C153.687 195.453 154.252 195.335 154.867 195.335C155.528 195.335 156.095 195.469 156.568 195.737C157.041 196.001 157.405 196.351 157.659 196.786C157.913 197.22 158.04 197.69 158.04 198.194C158.04 198.796 157.881 199.309 157.565 199.733C157.252 200.158 156.826 200.452 156.287 200.615V200.699C156.961 200.81 157.488 201.097 157.867 201.56C158.247 202.019 158.436 202.587 158.436 203.266C158.436 203.846 158.278 204.368 157.961 204.831C157.648 205.29 157.221 205.652 156.678 205.916C156.135 206.18 155.518 206.313 154.826 206.313ZM164.055 206.313C163.269 206.313 162.6 206.099 162.047 205.671C161.494 205.24 161.071 204.615 160.779 203.798C160.487 202.977 160.341 201.986 160.341 200.824C160.341 199.669 160.487 198.683 160.779 197.866C161.074 197.045 161.499 196.419 162.052 195.987C162.608 195.552 163.276 195.335 164.055 195.335C164.834 195.335 165.501 195.552 166.054 195.987C166.61 196.419 167.035 197.045 167.327 197.866C167.622 198.683 167.77 199.669 167.77 200.824C167.77 201.986 167.624 202.977 167.332 203.798C167.04 204.615 166.617 205.24 166.064 205.671C165.511 206.099 164.841 206.313 164.055 206.313ZM164.055 205.165C164.834 205.165 165.44 204.789 165.871 204.038C166.302 203.286 166.518 202.215 166.518 200.824C166.518 199.899 166.419 199.111 166.221 198.46C166.026 197.81 165.744 197.314 165.375 196.973C165.01 196.633 164.57 196.462 164.055 196.462C163.283 196.462 162.68 196.843 162.245 197.605C161.81 198.363 161.593 199.436 161.593 200.824C161.593 201.749 161.69 202.535 161.885 203.182C162.08 203.829 162.36 204.321 162.725 204.659C163.094 204.996 163.537 205.165 164.055 205.165ZM170.298 206.25C170.041 206.25 169.82 206.158 169.635 205.973C169.451 205.789 169.359 205.568 169.359 205.311C169.359 205.053 169.451 204.833 169.635 204.648C169.82 204.464 170.041 204.372 170.298 204.372C170.555 204.372 170.776 204.464 170.961 204.648C171.145 204.833 171.237 205.053 171.237 205.311C171.237 205.481 171.194 205.638 171.107 205.78C171.023 205.923 170.91 206.038 170.768 206.125C170.628 206.208 170.472 206.25 170.298 206.25ZM176.519 206.313C175.802 206.313 175.169 206.186 174.619 205.932C174.073 205.674 173.647 205.321 173.341 204.873C173.035 204.42 172.884 203.906 172.887 203.328C172.884 202.876 172.972 202.459 173.153 202.076C173.334 201.69 173.581 201.368 173.894 201.111C174.211 200.85 174.564 200.685 174.953 200.615V200.553C174.442 200.42 174.035 200.133 173.732 199.692C173.43 199.246 173.28 198.74 173.284 198.173C173.28 197.631 173.418 197.146 173.696 196.718C173.974 196.29 174.357 195.952 174.844 195.706C175.334 195.459 175.892 195.335 176.519 195.335C177.138 195.335 177.691 195.459 178.178 195.706C178.665 195.952 179.047 196.29 179.325 196.718C179.607 197.146 179.75 197.631 179.753 198.173C179.75 198.74 179.595 199.246 179.289 199.692C178.986 200.133 178.585 200.42 178.084 200.553V200.615C178.47 200.685 178.818 200.85 179.127 201.111C179.437 201.368 179.684 201.69 179.868 202.076C180.052 202.459 180.146 202.876 180.15 203.328C180.146 203.906 179.99 204.42 179.68 204.873C179.374 205.321 178.948 205.674 178.402 205.932C177.859 206.186 177.232 206.313 176.519 206.313ZM176.519 205.165C177.002 205.165 177.419 205.086 177.771 204.93C178.122 204.773 178.393 204.553 178.585 204.267C178.776 203.982 178.873 203.648 178.877 203.266C178.873 202.862 178.769 202.506 178.564 202.196C178.359 201.886 178.079 201.643 177.724 201.466C177.372 201.288 176.971 201.2 176.519 201.2C176.063 201.2 175.656 201.288 175.298 201.466C174.943 201.643 174.663 201.886 174.458 202.196C174.256 202.506 174.157 202.862 174.16 203.266C174.157 203.648 174.249 203.982 174.437 204.267C174.628 204.553 174.901 204.773 175.256 204.93C175.611 205.086 176.032 205.165 176.519 205.165ZM176.519 200.093C176.901 200.093 177.24 200.017 177.536 199.864C177.835 199.711 178.07 199.497 178.24 199.222C178.411 198.947 178.498 198.626 178.501 198.257C178.498 197.895 178.412 197.58 178.245 197.313C178.079 197.041 177.847 196.833 177.552 196.686C177.256 196.537 176.912 196.462 176.519 196.462C176.118 196.462 175.769 196.537 175.47 196.686C175.171 196.833 174.939 197.041 174.776 197.313C174.612 197.58 174.532 197.895 174.536 198.257C174.532 198.626 174.614 198.947 174.781 199.222C174.952 199.497 175.186 199.711 175.485 199.864C175.785 200.017 176.129 200.093 176.519 200.093ZM187.596 204.163V203.6C187.596 203.21 187.676 202.853 187.836 202.53C188 202.203 188.236 201.942 188.546 201.747C188.859 201.549 189.238 201.45 189.683 201.45C190.136 201.45 190.515 201.549 190.821 201.747C191.127 201.942 191.358 202.203 191.515 202.53C191.671 202.853 191.75 203.21 191.75 203.6V204.163C191.75 204.553 191.67 204.911 191.51 205.238C191.353 205.561 191.12 205.822 190.81 206.02C190.504 206.215 190.129 206.313 189.683 206.313C189.231 206.313 188.85 206.215 188.541 206.02C188.231 205.822 187.996 205.561 187.836 205.238C187.676 204.911 187.596 204.553 187.596 204.163ZM188.661 203.6V204.163C188.661 204.486 188.737 204.777 188.89 205.034C189.043 205.288 189.308 205.415 189.683 205.415C190.049 205.415 190.306 205.288 190.456 205.034C190.609 204.777 190.685 204.486 190.685 204.163V203.6C190.685 203.276 190.612 202.987 190.466 202.733C190.32 202.476 190.059 202.347 189.683 202.347C189.318 202.347 189.056 202.476 188.896 202.733C188.739 202.987 188.661 203.276 188.661 203.6ZM182.275 198.048V197.485C182.275 197.095 182.355 196.739 182.515 196.415C182.678 196.088 182.915 195.827 183.224 195.632C183.537 195.434 183.916 195.335 184.362 195.335C184.814 195.335 185.193 195.434 185.499 195.632C185.805 195.827 186.036 196.088 186.193 196.415C186.349 196.739 186.428 197.095 186.428 197.485V198.048C186.428 198.438 186.348 198.796 186.188 199.123C186.031 199.446 185.798 199.707 185.489 199.906C185.182 200.1 184.807 200.198 184.362 200.198C183.909 200.198 183.529 200.1 183.219 199.906C182.909 199.707 182.675 199.446 182.515 199.123C182.355 198.796 182.275 198.438 182.275 198.048ZM183.339 197.485V198.048C183.339 198.372 183.416 198.662 183.569 198.919C183.722 199.173 183.986 199.3 184.362 199.3C184.727 199.3 184.984 199.173 185.134 198.919C185.287 198.662 185.363 198.372 185.363 198.048V197.485C185.363 197.161 185.29 196.873 185.144 196.619C184.998 196.361 184.737 196.233 184.362 196.233C183.996 196.233 183.734 196.361 183.574 196.619C183.417 196.873 183.339 197.161 183.339 197.485ZM182.671 206.167L190.017 195.481H191.207L183.861 206.167H182.671Z" fill="white"/>
</g>
</g>
<defs>
<filter id="filter0_d_82_1277" x="76.3398" y="19.1506" width="277.321" height="412" filterUnits="userSpaceOnUse" color-interpolation-filters="sRGB">
<feFlood flood-opacity="0" result="BackgroundImageFix"/>
<feColorMatrix in="SourceAlpha" type="matrix" values="0 0 0 0 0 0 0 0 0 0 0 0 0 0 0 0 0 0 127 0" result="hardAlpha"/>
<feOffset dy="3.15058"/>
<feGaussianBlur stdDeviation="7.5"/>
<feComposite in2="hardAlpha" operator="out"/>
<feColorMatrix type="matrix" values="0 0 0 0 0.295139 0 0 0 0 0.3258 0 0 0 0 0.416667 0 0 0 0.05 0"/>
<feBlend mode="normal" in2="BackgroundImageFix" result="effect1_dropShadow_82_1277"/>
<feBlend mode="normal" in="SourceGraphic" in2="effect1_dropShadow_82_1277" result="shape"/>
</filter>
</defs>
</svg>
